<mxfile host="Electron" agent="Mozilla/5.0 (Windows NT 10.0; Win64; x64) AppleWebKit/537.36 (KHTML, like Gecko) draw.io/27.0.5 Chrome/134.0.6998.205 Electron/35.3.0 Safari/537.36" version="27.0.5">
  <diagram name="Page-1" id="LSclHxtjpY2hyq7D1crY">
    <mxGraphModel dx="786" dy="564" grid="1" gridSize="10" guides="1" tooltips="1" connect="1" arrows="1" fold="1" page="1" pageScale="1" pageWidth="850" pageHeight="1100" math="0" shadow="0">
      <root>
        <mxCell id="0" />
        <mxCell id="1" parent="0" />
        <mxCell id="JCOSPJ5j1FGCnQpofjfM-2" value="" style="rounded=0;whiteSpace=wrap;html=1;" parent="1" vertex="1">
          <mxGeometry x="100" y="80" width="120" height="370" as="geometry" />
        </mxCell>
        <mxCell id="JCOSPJ5j1FGCnQpofjfM-3" value="Sources" style="text;html=1;align=center;verticalAlign=middle;whiteSpace=wrap;rounded=0;strokeColor=none;fillColor=default;" parent="1" vertex="1">
          <mxGeometry x="130" y="70" width="60" height="30" as="geometry" />
        </mxCell>
        <mxCell id="JCOSPJ5j1FGCnQpofjfM-4" value="" style="image;aspect=fixed;html=1;points=[];align=center;fontSize=12;image=img/lib/azure2/general/Folder_Blank.svg;strokeWidth=2;" parent="1" vertex="1">
          <mxGeometry x="132.04" y="170" width="49.29" height="40" as="geometry" />
        </mxCell>
        <mxCell id="JCOSPJ5j1FGCnQpofjfM-24" style="edgeStyle=orthogonalEdgeStyle;rounded=0;orthogonalLoop=1;jettySize=auto;html=1;" parent="1" source="JCOSPJ5j1FGCnQpofjfM-6" target="JCOSPJ5j1FGCnQpofjfM-21" edge="1">
          <mxGeometry relative="1" as="geometry" />
        </mxCell>
        <mxCell id="JCOSPJ5j1FGCnQpofjfM-25" style="edgeStyle=orthogonalEdgeStyle;rounded=0;orthogonalLoop=1;jettySize=auto;html=1;entryX=0;entryY=0.75;entryDx=0;entryDy=0;" parent="1" source="JCOSPJ5j1FGCnQpofjfM-6" target="JCOSPJ5j1FGCnQpofjfM-9" edge="1">
          <mxGeometry relative="1" as="geometry" />
        </mxCell>
        <mxCell id="JCOSPJ5j1FGCnQpofjfM-6" value="" style="image;aspect=fixed;html=1;points=[];align=center;fontSize=12;image=img/lib/azure2/general/Folder_Blank.svg;strokeWidth=2;" parent="1" vertex="1">
          <mxGeometry x="130" y="330" width="50" height="40.58" as="geometry" />
        </mxCell>
        <mxCell id="JCOSPJ5j1FGCnQpofjfM-7" value="&lt;b&gt;&lt;font style=&quot;font-size: 9px;&quot;&gt;CRM&lt;/font&gt;&lt;/b&gt;" style="text;html=1;align=center;verticalAlign=middle;whiteSpace=wrap;rounded=0;" parent="1" vertex="1">
          <mxGeometry x="126.68" y="200" width="60" height="30" as="geometry" />
        </mxCell>
        <mxCell id="JCOSPJ5j1FGCnQpofjfM-8" value="&lt;b&gt;&lt;font style=&quot;font-size: 9px;&quot;&gt;ERP&lt;/font&gt;&lt;/b&gt;" style="text;html=1;align=center;verticalAlign=middle;whiteSpace=wrap;rounded=0;" parent="1" vertex="1">
          <mxGeometry x="126.68" y="360" width="60" height="30" as="geometry" />
        </mxCell>
        <mxCell id="JCOSPJ5j1FGCnQpofjfM-9" value="" style="rounded=0;whiteSpace=wrap;html=1;" parent="1" vertex="1">
          <mxGeometry x="290" y="80" width="120" height="370" as="geometry" />
        </mxCell>
        <mxCell id="JCOSPJ5j1FGCnQpofjfM-10" value="Bronze Layer" style="text;html=1;align=center;verticalAlign=middle;whiteSpace=wrap;rounded=0;strokeColor=#d79b00;fillColor=#ffe6cc;" parent="1" vertex="1">
          <mxGeometry x="310" y="70" width="80" height="30" as="geometry" />
        </mxCell>
        <mxCell id="HJDR-0Ywb6Ia_UFPJijA-16" style="edgeStyle=orthogonalEdgeStyle;rounded=0;orthogonalLoop=1;jettySize=auto;html=1;" edge="1" parent="1" source="JCOSPJ5j1FGCnQpofjfM-11" target="HJDR-0Ywb6Ia_UFPJijA-3">
          <mxGeometry relative="1" as="geometry" />
        </mxCell>
        <mxCell id="JCOSPJ5j1FGCnQpofjfM-11" value="&lt;font style=&quot;font-size: 11px;&quot;&gt;&lt;b style=&quot;&quot;&gt;crm_sales_details&lt;/b&gt;&lt;/font&gt;" style="text;html=1;align=center;verticalAlign=middle;whiteSpace=wrap;rounded=0;fillColor=#fff2cc;strokeColor=#d6b656;" parent="1" vertex="1">
          <mxGeometry x="300" y="130" width="100" height="30" as="geometry" />
        </mxCell>
        <mxCell id="HJDR-0Ywb6Ia_UFPJijA-11" style="edgeStyle=orthogonalEdgeStyle;rounded=0;orthogonalLoop=1;jettySize=auto;html=1;" edge="1" parent="1" source="JCOSPJ5j1FGCnQpofjfM-13" target="HJDR-0Ywb6Ia_UFPJijA-4">
          <mxGeometry relative="1" as="geometry" />
        </mxCell>
        <mxCell id="JCOSPJ5j1FGCnQpofjfM-13" value="&lt;font style=&quot;font-size: 11px;&quot;&gt;&lt;b style=&quot;&quot;&gt;crm_cust_info&lt;/b&gt;&lt;/font&gt;" style="text;html=1;align=center;verticalAlign=middle;whiteSpace=wrap;rounded=0;fillColor=#fff2cc;strokeColor=#d6b656;" parent="1" vertex="1">
          <mxGeometry x="300" y="170" width="100" height="30" as="geometry" />
        </mxCell>
        <mxCell id="HJDR-0Ywb6Ia_UFPJijA-12" style="edgeStyle=orthogonalEdgeStyle;rounded=0;orthogonalLoop=1;jettySize=auto;html=1;" edge="1" parent="1" source="JCOSPJ5j1FGCnQpofjfM-14" target="HJDR-0Ywb6Ia_UFPJijA-5">
          <mxGeometry relative="1" as="geometry" />
        </mxCell>
        <mxCell id="JCOSPJ5j1FGCnQpofjfM-14" value="&lt;font style=&quot;font-size: 11px;&quot;&gt;&lt;b style=&quot;&quot;&gt;crm_prd_info&lt;/b&gt;&lt;/font&gt;" style="text;html=1;align=center;verticalAlign=middle;whiteSpace=wrap;rounded=0;fillColor=#fff2cc;strokeColor=#d6b656;" parent="1" vertex="1">
          <mxGeometry x="300" y="210" width="100" height="30" as="geometry" />
        </mxCell>
        <mxCell id="JCOSPJ5j1FGCnQpofjfM-16" style="edgeStyle=orthogonalEdgeStyle;rounded=0;orthogonalLoop=1;jettySize=auto;html=1;entryX=-0.011;entryY=0.186;entryDx=0;entryDy=0;entryPerimeter=0;" parent="1" source="JCOSPJ5j1FGCnQpofjfM-4" target="JCOSPJ5j1FGCnQpofjfM-9" edge="1">
          <mxGeometry relative="1" as="geometry" />
        </mxCell>
        <mxCell id="JCOSPJ5j1FGCnQpofjfM-19" style="edgeStyle=orthogonalEdgeStyle;rounded=0;orthogonalLoop=1;jettySize=auto;html=1;entryX=0.028;entryY=0.287;entryDx=0;entryDy=0;entryPerimeter=0;" parent="1" source="JCOSPJ5j1FGCnQpofjfM-4" target="JCOSPJ5j1FGCnQpofjfM-9" edge="1">
          <mxGeometry relative="1" as="geometry" />
        </mxCell>
        <mxCell id="JCOSPJ5j1FGCnQpofjfM-20" style="edgeStyle=orthogonalEdgeStyle;rounded=0;orthogonalLoop=1;jettySize=auto;html=1;entryX=-0.028;entryY=0.392;entryDx=0;entryDy=0;entryPerimeter=0;" parent="1" source="JCOSPJ5j1FGCnQpofjfM-4" target="JCOSPJ5j1FGCnQpofjfM-9" edge="1">
          <mxGeometry relative="1" as="geometry" />
        </mxCell>
        <mxCell id="HJDR-0Ywb6Ia_UFPJijA-13" style="edgeStyle=orthogonalEdgeStyle;rounded=0;orthogonalLoop=1;jettySize=auto;html=1;entryX=0;entryY=0.5;entryDx=0;entryDy=0;" edge="1" parent="1" source="JCOSPJ5j1FGCnQpofjfM-21" target="HJDR-0Ywb6Ia_UFPJijA-6">
          <mxGeometry relative="1" as="geometry" />
        </mxCell>
        <mxCell id="JCOSPJ5j1FGCnQpofjfM-21" value="&lt;font style=&quot;font-size: 11px;&quot;&gt;&lt;b style=&quot;&quot;&gt;erp_cust_az12&lt;/b&gt;&lt;/font&gt;" style="text;html=1;align=center;verticalAlign=middle;whiteSpace=wrap;rounded=0;fillColor=#fff2cc;strokeColor=#d6b656;" parent="1" vertex="1">
          <mxGeometry x="300" y="300" width="100" height="30" as="geometry" />
        </mxCell>
        <mxCell id="HJDR-0Ywb6Ia_UFPJijA-14" style="edgeStyle=orthogonalEdgeStyle;rounded=0;orthogonalLoop=1;jettySize=auto;html=1;" edge="1" parent="1" source="JCOSPJ5j1FGCnQpofjfM-22" target="HJDR-0Ywb6Ia_UFPJijA-7">
          <mxGeometry relative="1" as="geometry" />
        </mxCell>
        <mxCell id="JCOSPJ5j1FGCnQpofjfM-22" value="&lt;font style=&quot;font-size: 11px;&quot;&gt;&lt;b style=&quot;&quot;&gt;erp_loc_a101&lt;/b&gt;&lt;/font&gt;" style="text;html=1;align=center;verticalAlign=middle;whiteSpace=wrap;rounded=0;fillColor=#fff2cc;strokeColor=#d6b656;" parent="1" vertex="1">
          <mxGeometry x="300" y="340" width="100" height="30" as="geometry" />
        </mxCell>
        <mxCell id="HJDR-0Ywb6Ia_UFPJijA-15" style="edgeStyle=orthogonalEdgeStyle;rounded=0;orthogonalLoop=1;jettySize=auto;html=1;" edge="1" parent="1" source="JCOSPJ5j1FGCnQpofjfM-23" target="HJDR-0Ywb6Ia_UFPJijA-8">
          <mxGeometry relative="1" as="geometry" />
        </mxCell>
        <mxCell id="JCOSPJ5j1FGCnQpofjfM-23" value="&lt;font style=&quot;font-size: 11px;&quot;&gt;&lt;b style=&quot;&quot;&gt;erp_px_cat_g1v2&lt;/b&gt;&lt;/font&gt;" style="text;html=1;align=center;verticalAlign=middle;whiteSpace=wrap;rounded=0;fillColor=#fff2cc;strokeColor=#d6b656;" parent="1" vertex="1">
          <mxGeometry x="300" y="380" width="100" height="30" as="geometry" />
        </mxCell>
        <mxCell id="JCOSPJ5j1FGCnQpofjfM-26" style="edgeStyle=orthogonalEdgeStyle;rounded=0;orthogonalLoop=1;jettySize=auto;html=1;entryX=0.083;entryY=0.865;entryDx=0;entryDy=0;entryPerimeter=0;" parent="1" source="JCOSPJ5j1FGCnQpofjfM-6" target="JCOSPJ5j1FGCnQpofjfM-9" edge="1">
          <mxGeometry relative="1" as="geometry" />
        </mxCell>
        <mxCell id="HJDR-0Ywb6Ia_UFPJijA-1" value="" style="rounded=0;whiteSpace=wrap;html=1;fillColor=none;fontColor=#333333;strokeColor=#666666;" vertex="1" parent="1">
          <mxGeometry x="450" y="80" width="120" height="370" as="geometry" />
        </mxCell>
        <mxCell id="HJDR-0Ywb6Ia_UFPJijA-2" value="SilverLayer" style="text;html=1;align=center;verticalAlign=middle;whiteSpace=wrap;rounded=0;strokeColor=#666666;fillColor=#f5f5f5;fontColor=#333333;" vertex="1" parent="1">
          <mxGeometry x="470" y="70" width="70" height="30" as="geometry" />
        </mxCell>
        <mxCell id="HJDR-0Ywb6Ia_UFPJijA-3" value="&lt;font style=&quot;font-size: 11px;&quot;&gt;&lt;b style=&quot;&quot;&gt;crm_sales_details&lt;/b&gt;&lt;/font&gt;" style="text;html=1;align=center;verticalAlign=middle;whiteSpace=wrap;rounded=0;fillColor=#f5f5f5;strokeColor=#666666;fontColor=#333333;" vertex="1" parent="1">
          <mxGeometry x="460" y="130" width="100" height="30" as="geometry" />
        </mxCell>
        <mxCell id="HJDR-0Ywb6Ia_UFPJijA-4" value="&lt;font style=&quot;font-size: 11px;&quot;&gt;&lt;b style=&quot;&quot;&gt;crm_cust_info&lt;/b&gt;&lt;/font&gt;" style="text;html=1;align=center;verticalAlign=middle;whiteSpace=wrap;rounded=0;fillColor=#f5f5f5;strokeColor=#666666;fontColor=#333333;" vertex="1" parent="1">
          <mxGeometry x="460" y="170" width="100" height="30" as="geometry" />
        </mxCell>
        <mxCell id="HJDR-0Ywb6Ia_UFPJijA-5" value="&lt;font style=&quot;font-size: 11px;&quot;&gt;&lt;b style=&quot;&quot;&gt;crm_prd_info&lt;/b&gt;&lt;/font&gt;" style="text;html=1;align=center;verticalAlign=middle;whiteSpace=wrap;rounded=0;fillColor=#f5f5f5;strokeColor=#666666;fontColor=#333333;" vertex="1" parent="1">
          <mxGeometry x="460" y="210" width="100" height="30" as="geometry" />
        </mxCell>
        <mxCell id="HJDR-0Ywb6Ia_UFPJijA-6" value="&lt;font style=&quot;font-size: 11px;&quot;&gt;&lt;b style=&quot;&quot;&gt;erp_cust_az12&lt;/b&gt;&lt;/font&gt;" style="text;html=1;align=center;verticalAlign=middle;whiteSpace=wrap;rounded=0;fillColor=#f5f5f5;strokeColor=#666666;fontColor=#333333;" vertex="1" parent="1">
          <mxGeometry x="460" y="300" width="100" height="30" as="geometry" />
        </mxCell>
        <mxCell id="HJDR-0Ywb6Ia_UFPJijA-7" value="&lt;font style=&quot;font-size: 11px;&quot;&gt;&lt;b style=&quot;&quot;&gt;erp_loc_a101&lt;/b&gt;&lt;/font&gt;" style="text;html=1;align=center;verticalAlign=middle;whiteSpace=wrap;rounded=0;fillColor=#f5f5f5;strokeColor=#666666;fontColor=#333333;" vertex="1" parent="1">
          <mxGeometry x="460" y="340" width="100" height="30" as="geometry" />
        </mxCell>
        <mxCell id="HJDR-0Ywb6Ia_UFPJijA-8" value="&lt;font style=&quot;font-size: 11px;&quot;&gt;&lt;b style=&quot;&quot;&gt;erp_px_cat_g1v2&lt;/b&gt;&lt;/font&gt;" style="text;html=1;align=center;verticalAlign=middle;whiteSpace=wrap;rounded=0;fillColor=#f5f5f5;strokeColor=#666666;fontColor=#333333;" vertex="1" parent="1">
          <mxGeometry x="460" y="380" width="100" height="30" as="geometry" />
        </mxCell>
      </root>
    </mxGraphModel>
  </diagram>
</mxfile>
